<svg xmlns="http://www.w3.org/2000/svg" viewBox="0 0 64 64" x="0px" y="0px"><title>_</title><g data-name="Layer 21"><path d="M31.82,22.43a3.885,3.885,0,1,0-3.88-3.89A3.886,3.886,0,0,0,31.82,22.43Zm0-5.77a1.885,1.885,0,1,1-1.88,1.88A1.884,1.884,0,0,1,31.82,16.66ZM27.17,28.25a9.5,9.5,0,0,0,9.66,0A9.751,9.751,0,0,0,38.49,27a9.51,9.51,0,1,0-12.98,0A9.751,9.751,0,0,0,27.17,28.25ZM32,27.57a7.4,7.4,0,0,1-3.79-1.03,5.2,5.2,0,0,1,7.58,0A7.4,7.4,0,0,1,32,27.57Zm-7.51-7.5a7.51,7.51,0,1,1,15.02,0,7.393,7.393,0,0,1-2.14,5.23,7.208,7.208,0,0,0-10.74,0A7.393,7.393,0,0,1,24.49,20.07ZM50,5H14a3.009,3.009,0,0,0-3,3V56a3.009,3.009,0,0,0,3,3H50a3.009,3.009,0,0,0,3-3V8A3.009,3.009,0,0,0,50,5Zm1,51a1,1,0,0,1-1,1H14a1,1,0,0,1-1-1V8a1,1,0,0,1,1-1H50a1,1,0,0,1,1,1ZM38,35a1,1,0,0,1,0,2H26a1,1,0,0,1,0-2Zm10,6a1,1,0,0,1-1,1H17a1,1,0,0,1,0-2H47A1,1,0,0,1,48,41Zm0,4a1,1,0,0,1-1,1H44a1,1,0,0,1,0-2h3A1,1,0,0,1,48,45ZM16,45a1,1,0,0,1,1-1H40a1,1,0,0,1,0,2H17A1,1,0,0,1,16,45Zm32,4a1,1,0,0,1-1,1H23a1,1,0,0,1,0-2H47A1,1,0,0,1,48,49ZM16,49a1,1,0,0,1,1-1h2a1,1,0,0,1,0,2H17A1,1,0,0,1,16,49Zm32,4a1,1,0,0,1-1,1H42a1,1,0,0,1,0-2h5A1,1,0,0,1,48,53Zm-9,0a1,1,0,0,1-1,1H17a1,1,0,0,1,0-2H38A1,1,0,0,1,39,53Z"/></g></svg>
