<svg version="1.1" viewBox="0.0 0.0 401.249343832021 401.249343832021" fill="none" stroke="none" stroke-linecap="square" stroke-miterlimit="10" xmlns:xlink="http://www.w3.org/1999/xlink" xmlns="http://www.w3.org/2000/svg"><clipPath id="p.0"><path d="m0 0l401.24933 0l0 371.9265l-401.24933 0l0 -371.9265z" clip-rule="nonzero"/></clipPath><g clip-path="url(#p.0)"><path fill="#000000" fill-opacity="0.0" d="m0 0l401.24933 0l0 371.9265l-401.24933 0z" fill-rule="evenodd"/><path fill="#000000" fill-opacity="0.0" d="m0 -94.16535l346.07874 0l0 423.40155l-346.07874 0z" fill-rule="evenodd"/><path fill="#000000" d="m264.65625 33.834644l0 -18.0l70.34375 0l0 18.0l-26.0 4.34375l-58.671875 197.32812l-32.671875 0l-47.328125 -151.34375l-46.0 151.34375l-32.65625 0l-59.671875 -199.67188l-20.328125 -2.0l0 -18.0l103.328125 0l0 18.0l-24.328125 2.671875l34.0 134.0l40.0 -133.67188l-24.34375 -3.0l0 -18.0l100.0 0l0 18.0l-29.328125 3.671875l39.0 135.65625l38.328125 -135.65625l-23.671875 -3.671875z" fill-rule="nonzero"/><path fill="#000000" fill-opacity="0.0" d="m115.64304 31.335958l314.96063 0l0 423.40155l-314.96063 0z" fill-rule="evenodd"/><path fill="#3498db" d="m263.64304 159.33595l0 -18.0l105.328125 0l0 18.0l-24.671875 2.671875q-0.328125 20.328125 -0.5 41.0q-0.15625 20.65625 -0.15625 41.65625l0 12.343765q0 20.328125 0.15625 41.171875q0.171875 20.828125 0.5 41.484375l24.671875 2.671875l0 18.0l-105.328125 0l0 -18.0l23.328125 -2.328125q0.671875 -20.671875 0.671875 -41.328125q0 -20.671875 0 -41.015625l-70.999985 0q0 22.34375 0.15625 42.515625q0.171875 20.15625 0.515625 39.828125l23.328125 2.328125l0 18.0l-105.0 0l0 -18.0l24.328125 -2.671875q0.671875 -20.328125 0.671875 -40.984375q0 -20.671875 0 -41.671875l0 -12.343765q0 -20.65625 0 -41.3125q0 -20.671875 -0.671875 -41.34375l-24.328125 -2.671875l0 -18.0l105.0 0l0 18.0l-23.328125 2.34375q-0.34375 20.328125 -0.515625 40.328125q-0.15625 20.0 -0.15625 36.0l70.999985 0q0 -19.0 0 -38.15625q0 -19.171875 -0.671875 -38.171875l-23.328125 -2.34375z" fill-rule="nonzero"/></g></svg>
