<svg version="1.1" viewBox="0.0 0.0 36.0 36.0" fill="none" stroke="none" stroke-linecap="square" stroke-miterlimit="10" xmlns:xlink="http://www.w3.org/1999/xlink" xmlns="http://www.w3.org/2000/svg"><clipPath id="p.0"><path d="m0 0l36.0 0l0 36.0l-36.0 0l0 -36.0z" clip-rule="nonzero"/></clipPath><g clip-path="url(#p.0)"><path fill="#000000" fill-opacity="0.0" d="m0 0l36.0 0l0 36.0l-36.0 0z" fill-rule="evenodd"/><path fill="#000000" fill-opacity="0.0" d="m0 -9.114577l31.055119 0l0 38.96063l-31.055119 0z" fill-rule="evenodd"/><path fill="#000000" d="m23.515625 1.8410467l0 -1.65625l6.46875 0l0 1.65625l-2.390625 0.39062512l-5.40625 18.15625l-3.0 0l-4.34375 -13.921875l-4.234375 13.921875l-3.0 0l-5.5 -18.359375l-1.859375 -0.18750012l0 -1.65625l9.5 0l0 1.65625l-2.234375 0.25000012l3.125 12.3125l3.671875 -12.28125l-2.234375 -0.28125012l0 -1.65625l9.203125 0l0 1.65625l-2.703125 0.32812512l3.59375 12.484375l3.515625 -12.484375l-2.171875 -0.32812512z" fill-rule="nonzero"/><path fill="#000000" fill-opacity="0.0" d="m10.375467 3.0331113l28.25197 0l0 38.96063l-28.25197 0z" fill-rule="evenodd"/><path fill="#3498db" d="m23.156717 13.988735l0 -1.65625l9.687502 0l0 1.65625l-2.265627 0.25q-0.03125 1.859375 -0.046875 3.765625q-0.015625 1.90625 -0.015625 3.828125l0 1.140625q0 1.859375 0.015625 3.78125q0.015625 1.921875 0.046875 3.8125l2.265627 0.25l0 1.65625l-9.687502 0l0 -1.65625l2.140625 -0.21875q0.0625 -1.890625 0.0625 -3.796875q0 -1.90625 0 -3.765625l-6.515625 0q0 2.046875 0 3.90625q0.015625 1.859375 0.046875 3.65625l2.15625 0.21875l0 1.65625l-9.65625 0l0 -1.65625l2.234375 -0.25q0.0625 -1.859375 0.0625 -3.765625q0 -1.90625 0 -3.828125l0 -1.140625q0 -1.890625 0 -3.796875q0 -1.90625 -0.0625 -3.796875l-2.234375 -0.25l0 -1.65625l9.65625 0l0 1.65625l-2.15625 0.21875q-0.03125 1.859375 -0.046875 3.703125q0 1.84375 0 3.3125l6.515625 0q0 -1.75 0 -3.515625q0 -1.765625 -0.0625 -3.5l-2.140625 -0.21875z" fill-rule="nonzero"/></g></svg>