<svg version="1.1" viewBox="0.0 0.0 929.7559055118111 435.12073490813646" fill="none" stroke="none" stroke-linecap="square" stroke-miterlimit="10" xmlns:xlink="http://www.w3.org/1999/xlink" xmlns="http://www.w3.org/2000/svg"><clipPath id="p.0"><path d="m0 0l929.7559 0l0 435.12073l-929.7559 0l0 -435.12073z" clip-rule="nonzero"/></clipPath><g clip-path="url(#p.0)"><path fill="#000000" fill-opacity="0.0" d="m0 0l929.7559 0l0 435.12073l-929.7559 0z" fill-rule="evenodd"/><path fill="#000000" fill-opacity="0.0" d="m0 0l960.0 0l0 423.40158l-960.0 0z" fill-rule="evenodd"/><path fill="#000000" d="m264.65625 128.0l0 -18.0l70.34375 0l0 18.0l-26.0 4.34375l-58.671875 197.32812l-32.671875 0l-47.328125 -151.34375l-46.0 151.34375l-32.65625 0l-59.671875 -199.67188l-20.328125 -2.0l0 -18.0l103.328125 0l0 18.0l-24.328125 2.671875l34.0 134.0l40.0 -133.67188l-24.34375 -3.0l0 -18.0l100.0 0l0 18.0l-29.328125 3.671875l39.0 135.65625l38.328125 -135.65625l-23.671875 -3.671875zm70.00519 201.0l0 -15.671875l18.0 -4.0q0.328125 -12.0 0.328125 -26.0q0 -14.0 0 -24.328125l0 -16.0q0 -13.671875 -0.171875 -22.828125q-0.15625 -9.171875 -0.828125 -19.171875l-20.65625 -3.0l0 -13.0l70.0 -22.328125l5.65625 3.65625l-1.0 48.34375l0 44.328125q0 10.328125 0 24.5q0 14.171875 0.34375 26.5l16.65625 3.328125l0 15.671875l-88.328125 0zm44.328125 -191.0q-11.65625 0 -20.0 -7.5q-8.328125 -7.5 -8.328125 -18.828125q0 -11.671875 8.328125 -19.171875q8.34375 -7.5 20.0 -7.5q11.671875 0 20.0 7.5q8.34375 7.5 8.34375 19.171875q0 11.328125 -8.34375 18.828125q-8.328125 7.5 -20.0 7.5zm59.675415 191.0l0 -15.671875l18.328125 -4.0q0.328125 -12.65625 0.5 -25.328125q0.171875 -12.671875 0.171875 -25.0l0 -139.65625l-20.671875 -3.34375l0 -14.0l70.0 -15.0l5.328125 3.34375l-1.328125 46.65625l0 122.0q0 12.671875 0.15625 25.34375q0.171875 12.65625 0.515625 25.328125l18.328125 3.65625l0 15.671875l-91.328125 0zm107.66498 0l0 -15.671875l18.328125 -4.0q0.328125 -12.65625 0.5 -25.328125q0.171875 -12.671875 0.171875 -25.0l0 -139.65625l-20.671875 -3.34375l0 -14.0l70.0 -15.0l5.328125 3.34375l-1.328125 46.65625l0 122.0q0 12.671875 0.15625 25.34375q0.171875 12.65625 0.515625 25.328125l18.328125 3.65625l0 15.671875l-91.328125 0z" fill-rule="nonzero"/><path fill="#3498db" d="m784.323 128.0l0 -18.0l105.328125 0l0 18.0l-24.671875 2.671875q-0.328125 20.328125 -0.5 41.0q-0.15625 20.65625 -0.15625 41.65625l0 12.34375q0 20.328125 0.15625 41.171875q0.171875 20.828125 0.5 41.484375l24.671875 2.671875l0 18.0l-105.328125 0l0 -18.0l23.328125 -2.328125q0.671875 -20.671875 0.671875 -41.328125q0 -20.671875 0 -41.015625l-71.0 0q0 22.34375 0.15625 42.515625q0.171875 20.15625 0.515625 39.828125l23.328125 2.328125l0 18.0l-105.0 0l0 -18.0l24.328125 -2.671875q0.671875 -20.328125 0.671875 -40.984375q0 -20.671875 0 -41.671875l0 -12.34375q0 -20.65625 0 -41.3125q0 -20.671875 -0.671875 -41.34375l-24.328125 -2.671875l0 -18.0l105.0 0l0 18.0l-23.328125 2.34375q-0.34375 20.328125 -0.515625 40.328125q-0.15625 20.0 -0.15625 36.0l71.0 0q0 -19.0 0 -38.15625q0 -19.171875 -0.671875 -38.171875l-23.328125 -2.34375z" fill-rule="nonzero"/></g></svg>