<svg xmlns="http://www.w3.org/2000/svg" viewBox="0 0 64 80" x="0px" y="0px"><title>momentum-energy-education-physics-newtons-cradle</title><g data-name="line expand"><path d="M54,23a3.979,3.979,0,0,0-2.89,1.249L49,23.482V18a5.006,5.006,0,0,0-5-5H16a5.006,5.006,0,0,0-5,5V42H9a3,3,0,0,0-3,3v6a1,1,0,0,0,1,1H53a1,1,0,0,0,1-1V45a3,3,0,0,0-3-3H49V25.609l1.135.413A3.952,3.952,0,0,0,50,27a4,4,0,1,0,4-4ZM44,15a3,3,0,0,1,3,3v4.754l-.163-.059a7.992,7.992,0,0,1-5.027-5.578L41.281,15ZM27,15h5V26.142A3.99,3.99,0,0,0,29.5,28.1,3.99,3.99,0,0,0,27,26.142Zm6,13a2,2,0,1,1-2,2A2,2,0,0,1,33,28Zm-5,2a2,2,0,1,1-2-2A2,2,0,0,1,28,30ZM20,15h5V26.142A3.99,3.99,0,0,0,22.5,28.1,3.99,3.99,0,0,0,20,26.142Zm1,15a2,2,0,1,1-2-2A2,2,0,0,1,21,30ZM13,18a3,3,0,0,1,3-3h2V26.142A3.991,3.991,0,1,0,22.5,31.9a3.963,3.963,0,0,0,7,0A3.988,3.988,0,1,0,34,26.142V15h5.219l.651,2.6a9.986,9.986,0,0,0,6.284,6.972l.846.308V42H13ZM52,50H8V48H52Zm-1-6a1,1,0,0,1,1,1v1H8V45a1,1,0,0,1,1-1Zm3-15a2,2,0,1,1,2-2A2,2,0,0,1,54,29Z"/></g></svg>